#!OML:ASF F:\VICON\USERDATA\INSTALL\rory3\rory3.ASF
:FULLY-SPECIFIED
:DEGREES
782
root 3.76336 17.4209 7.16377 -5.82945 79.6413 336.441
lowerback -5.50969 -2.22779 -2.19195
upperback -8.19848 -2.59611 2.14515
thorax -5.23585 -0.991402 3.42283
lowerneck -2.00452 -18.84 -12.7918
upperneck 36.136 -29.2354 11.0338
head 17.4544 -12.5837 1.82604
rclavicle 6.05051e-015 -9.54166e-015
rhumerus -44.0835 63.7305 -77.4615
rradius 69.4195
rwrist -12.8903
rhand 23.0857 5.89839
rfingers 7.12502
rthumb 47.3981 -16.5904
lclavicle 6.05051e-015 -9.54166e-015
lhumerus -36.6604 -66.0135 86.6199
lradius 68.1826
lwrist -11.1585
lhand 20.2031 20.4775
lfingers 7.12502
lthumb 44.7242 44.0849
rfemur -37.3319 14.3598 12.8474
rtibia 36.5468
rfoot -1.4795 -25.2658
rtoes -11.326
lfemur -23.3217 -20.2361 -4.00031
ltibia 38.9755
lfoot -6.76513 27.8066
ltoes 7.03305
783
root 3.80967 17.3868 7.38239 -29.5092 82.9096 312.283
lowerback -5.15943 -2.45144 -1.36235
upperback -8.97892 -2.81772 2.67656
thorax -6.26939 -1.07637 3.55132
lowerneck -1.08437 -19.442 -13.337
upperneck 35.7907 -30.1629 11.3939
head 17.4431 -13.0313 1.90264
rclavicle 4.06515e-014 -3.18055e-015
rhumerus -46.4055 62.9345 -81.4242
rradius 69.0422
rwrist -13.3451
rhand 24.7915 6.3653
rfingers 7.12502
rthumb 48.9696 -15.3821
lclavicle 4.06515e-014 -3.18055e-015
lhumerus -40.2992 -66.9057 91.0297
lradius 70.4231
lwrist -9.60759
lhand 21.4648 20.9779
lfingers 7.12502
lthumb 45.8971 44.1152
rfemur -36.4616 12.9906 15.7817
rtibia 36.782
rfoot -4.98969 -27.7154
rtoes -7.94605
lfemur -24.8675 -19.4067 -1.57738
ltibia 39.2224
lfoot -12.1072 29.9273
ltoes 17.4086
784
root 3.86157 17.3573 7.58503 -64.5209 84.8094 276.566
lowerback -6.8262 -2.78002 -2.11658
upperback -8.4696 -3.20765 3.12599
thorax -4.69552 -1.24569 4.34058
lowerneck -1.87505 -19.988 -13.2275
upperneck 34.6689 -31.0346 12.1872
head 17.3522 -13.2846 1.88932
rclavicle 2.14812e-014 7.95139e-016
rhumerus -45.3025 64.2823 -81.7614
rradius 70.9269
rwrist -15.2437
rhand 25.214 4.40762
rfingers 7.12502
rthumb 49.3576 -17.146
lclavicle 2.14812e-014 7.95139e-016
lhumerus -40.4327 -68.7454 90.5846
lradius 75.8701
lwrist -6.47621
lhand 22.8386 23.973
lfingers 7.12502
lthumb 47.1697 46.5641
rfemur -36.324 11.6533 17.1773
rtibia 37.278
rfoot -8.8371 -29.7527
rtoes -3.39992
lfemur -26.598 -19.0312 -0.713373
ltibia 39.2167
lfoot -16.2661 31.803
ltoes 24.2194
785
root 3.91904 17.338 7.78041 -104.844 84.659 235.389
lowerback -7.26812 -2.6559 -2.44597
upperback -9.16816 -2.96973 2.52071
thorax -5.23301 -1.0752 3.90162
lowerneck -1.13114 -20.6336 -13.4763
upperneck 34.4025 -32.2239 13.0005
head 17.572 -13.7278 2.01325
rclavicle 5.66536e-015 -1.03368e-014
rhumerus -49.383 63.9042 -87.0259
rradius 72.9996
rwrist -16.4665
rhand 25.4819 2.41236
rfingers 7.12502
rthumb 49.6032 -19.0163
lclavicle 5.66536e-015 -1.03368e-014
lhumerus -40.1645 -67.6909 92.3229
lradius 74.2009
lwrist -5.70332
lhand 24.6848 22.4047
lfingers 7.12502
lthumb 48.8716 44.2004
rfemur -36.6486 10.4979 17.6682
rtibia 37.9149
rfoot -12.6125 -31.4564
rtoes 1.13965
lfemur -28.2425 -17.7426 -1.03866
ltibia 39.1127
lfoot -18.7576 32.9429
ltoes 25.8296
786
root 3.98053 17.3215 7.93035 -132.951 82.3071 206.614
lowerback -7.62419 -2.94767 -2.86301
upperback -9.68297 -3.27476 2.46192
thorax -5.54712 -1.16154 4.06203
lowerneck -0.721842 -20.8857 -14.4527
upperneck 34.1318 -32.6583 13.6041
head 17.8313 -13.9529 2.26626
rclavicle -2.61402e-014 2.98177e-015
rhumerus -51.1926 64.3979 -89.9042
rradius 74.3414
rwrist -17.5466
rhand 26.8633 1.83016
rfingers 7.12502
rthumb 50.8662 -18.9256
lclavicle -2.61402e-014 2.98177e-015
lhumerus -42.5736 -67.0761 95.1686
lradius 76.2733
lwrist -3.21653
lhand 25.6257 23.0356
lfingers 7.12502
lthumb 49.735 44.3964
rfemur -36.7669 8.7702 18.027
rtibia 38.4821
rfoot -14.212 -33.1358
rtoes -0.421222
lfemur -29.714 -17.6154 -1.70459
ltibia 39.0268
lfoot -24.2019 33.056
ltoes 34.5361
787
root 4.04509 17.3032 8.07003 -143.673 78.8349 195.321
lowerback -7.99311 -3.13251 -2.78644
upperback -10.1031 -3.44825 2.46832
thorax -5.78475 -1.21191 4.01405
lowerneck -1.0799 -21.0343 -14.4997
upperneck 34.0443 -32.5946 13.1213
head 17.7034 -13.9407 2.05575
rclavicle 3.59428e-014 2.60408e-014
rhumerus -52.6849 64.7212 -92.2493
rradius 75.7113
rwrist -18.4266
rhand 27.666 2.15089
rfingers 7.12502
rthumb 51.5968 -18.1912
lclavicle 3.59428e-014 2.60408e-014
lhumerus -45.0253 -66.4995 97.9936
lradius 78.2957
lwrist -0.907134
lhand 26.3017 23.4265
lfingers 7.12502
lthumb 50.3535 44.4616
rfemur -36.6651 6.78778 18.9641
rtibia 38.8094
rfoot -14.4708 -34.3169
rtoes -3.28251
lfemur -31.0871 -16.0682 -2.65233
ltibia 39.2442
lfoot -25.7853 35.0407
ltoes 31.374
788
root 4.11462 17.2837 8.18254 -146.397 74.4354 192.865
lowerback -8.14857 -2.79388 -0.829406
upperback -9.90716 -3.06904 1.91065
thorax -5.63993 -1.16796 2.33635
lowerneck -2.17578 -21.5572 -13.268
upperneck 33.7702 -33.3839 13.1915
head 17.6819 -14.0189 1.63861
rclavicle -5.40446e-015 8.74653e-015
rhumerus -52.7918 63.5026 -93.6369
rradius 77.1364
rwrist -19.1857
rhand 27.774 2.46773
rfingers 7.12502
rthumb 51.695 -17.8174
lclavicle -5.40446e-015 8.74653e-015
lhumerus -45.9885 -67.3618 98.9428
lradius 79.8214
lwrist 1.33373
lhand 26.8287 23.0555
lfingers 7.12502
lthumb 50.8346 43.8287
rfemur -35.6039 4.14419 21.061
rtibia 38.9356
rfoot -16.8477 -33.8298
rtoes 0.874219
lfemur -31.8081 -14.7897 -2.79746
ltibia 39.6983
lfoot -33.0288 33.7285
ltoes 32.7148
789
root 4.17012 17.25 8.31373 -145.391 69.6674 193.927
lowerback -8.25463 -2.7741 1.09959
upperback -10.0685 -3.03346 2.45464
thorax -5.83734 -1.22552 1.8318
lowerneck -3.41228 -21.6797 -12.8833
upperneck 33.7434 -33.369 12.8054
head 17.722 -13.8943 1.31353
rclavicle -9.95166e-015 2.84262e-014
rhumerus -53.8617 63.7792 -95.0722
rradius 78.9732
rwrist -20.0621
rhand 27.9472 2.33535
rfingers 7.12502
rthumb 51.8523 -17.8576
lclavicle -9.95166e-015 2.84262e-014
lhumerus -47.0608 -66.701 100.476
lradius 80.9356
lwrist 3.18268
lhand 26.9684 23.8736
lfingers 7.12502
lthumb 50.9619 44.5762
rfemur -34.9544 4.29569 23.517
rtibia 39.0397
rfoot -21.6502 -34.5452
rtoes 8.15045
lfemur -33.0874 -11.7138 -2.00265
ltibia 40.3628
lfoot -35.0767 32.9928
ltoes 30.2288
790
root 4.21884 17.2124 8.41681 -147.088 65.8429 192.147
lowerback -8.51569 -2.61876 1.96625
upperback -10.2902 -2.78679 2.59598
thorax -5.98276 -1.12363 1.50035
lowerneck -4.44039 -21.9869 -12.013
upperneck 33.4608 -33.4183 11.7936
head 17.2782 -13.8852 0.736082
rclavicle 3.16192e-015 -3.88624e-014
rhumerus -55.3748 63.9143 -96.2924
rradius 81.1281
rwrist -20.8057
rhand 28.8724 0.877225
rfingers 7.12502
rthumb 52.6904 -18.8092
lclavicle 3.16192e-015 -3.88624e-014
lhumerus -49.184 -66.6719 102.953
lradius 82.6654
lwrist 4.98792
lhand 27.6309 23.232
lfingers 7.12502
lthumb 51.565 43.5926
rfemur -34.579 3.06246 24.7466
rtibia 39.1287
rfoot -22.3215 -34.988
rtoes 6.65161
lfemur -34.2733 -9.82481 -2.66371
ltibia 40.9542
lfoot -41.0458 29.7883
ltoes 34.3581
791
root 4.27541 17.1827 8.57245 -148.76 61.5196 189.744
lowerback -9.21655 -2.67449 1.9428
upperback -10.668 -2.77142 2.62289
thorax -6.00537 -1.07021 1.52229
lowerneck -3.98159 -21.7283 -13.3681
upperneck 32.5065 -33.1772 13.3526
head 17.3933 -13.8068 1.55571
rclavicle -2.66806e-014 -3.57812e-015
rhumerus -56.9058 63.6018 -97.2487
rradius 83.5179
rwrist -21.6599
rhand 29.6092 -1.19202
rfingers 7.12502
rthumb 53.3552 -20.4568
lclavicle -2.66806e-014 -3.57812e-015
lhumerus -51.7353 -67.6238 105.382
lradius 85.0034
lwrist 7.64136
lhand 27.983 24.5104
lfingers 7.12502
lthumb 51.8848 44.6843
rfemur -34.977 1.84352 25.8008
rtibia 39.3103
rfoot -22.1741 -36.2313
rtoes 3.05079
lfemur -36.3135 -6.97767 -3.61892
ltibia 41.5063
lfoot -42.3522 28.0415
ltoes 34.784
792
root 4.34928 17.1588 8.61525 -150.825 57.5105 188.836
lowerback -8.9825 -2.37511 3.23715
upperback -10.4178 -2.42442 2.47493
thorax -5.94407 -0.985587 0.66287
lowerneck -4.14556 -21.5955 -13.8393
upperneck 31.7267 -32.9256 14.0187
head 17.2599 -13.6952 1.90227
rclavicle -5.37829e-014 -8.74653e-015
rhumerus -58.6263 63.4317 -98.1301
rradius 85.8748
rwrist -22.842
rhand 29.5175 -1.93385
rfingers 7.12502
rthumb 53.2726 -21.252
lclavicle -5.37829e-014 -8.74653e-015
lhumerus -53.4528 -67.9861 107.123
lradius 86.4656
lwrist 10.2362
lhand 28.7005 24.2278
lfingers 7.12502
lthumb 52.535 44.0102
rfemur -33.2303 1.06174 26.5269
rtibia 39.4821
rfoot -22.7393 -36.7195
rtoes 1.68648
lfemur -35.9118 -8.30197 -4.18992
ltibia 41.8165
lfoot -47.0176 26.463
ltoes 34.9625
793
root 4.39932 17.1437 8.76331 -149.949 52.6639 189.002
lowerback -9.89298 -2.44439 4.33587
upperback -10.9319 -2.42921 2.84278
thorax -6.06044 -0.984572 0.418111
lowerneck -4.60532 -21.4089 -13.6122
upperneck 31.0304 -32.4852 14.1498
head 16.8832 -13.4814 2.00707
rclavicle 8.52227e-014 3.63776e-014
rhumerus -59.8195 63.1383 -98.8514
rradius 87.4628
rwrist -24.0084
rhand 29.5027 -1.39676
rfingers 7.12502
rthumb 53.2593 -20.7236
lclavicle 8.52227e-014 3.63776e-014
lhumerus -54.9265 -67.982 108.617
lradius 87.4045
lwrist 12.5714
lhand 28.5886 25.5773
lfingers 7.12502
lthumb 52.4337 45.4218
rfemur -33.9367 0.852189 28.4779
rtibia 39.8448
rfoot -23.9596 -37.417
rtoes 2.54272
lfemur -38.0566 -5.67534 -3.77036
ltibia 41.8993
lfoot -45.1929 27.2519
ltoes 31.7171
794
root 4.45751 17.1294 8.898 -151.123 48.8526 188.034
lowerback -9.97758 -2.38815 4.64319
upperback -11.0106 -2.32552 2.63804
thorax -6.12747 -0.94108 0.0350196
lowerneck -5.45776 -21.0812 -12.7833
upperneck 30.705 -31.8249 13.8709
head 16.51 -13.1103 1.92047
rclavicle -1.14171e-013 -1.45858e-014
rhumerus -59.8473 62.7932 -99.1755
rradius 88.6113
rwrist -25.4388
rhand 29.8903 -1.29373
rfingers 7.12502
rthumb 53.6083 -20.3932
lclavicle -1.14171e-013 -1.45858e-014
lhumerus -56.7329 -68.8307 109.953
lradius 89.0905
lwrist 15.5765
lhand 28.3153 26.3142
lfingers 7.12502
lthumb 52.1861 46.3086
rfemur -33.519 1.19523 29.028
rtibia 40.1222
rfoot -24.1312 -38.0956
rtoes 2.14015
lfemur -38.4963 -5.48681 -4.30663
ltibia 41.748
lfoot -46.7149 26.4633
ltoes 31.9767
795
root 4.52111 17.1221 9.04598 -153.991 45.7092 184.903
lowerback -9.86321 -2.11074 3.23227
upperback -10.9784 -1.92578 1.35041
thorax -6.10797 -0.697564 -0.515672
lowerneck -6.41371 -21.1249 -11.0048
upperneck 30.3711 -31.8956 13.6819
head 16.128 -12.9097 1.58305
rclavicle -3.96948e-014 2.21645e-014
rhumerus -60.3878 60.7698 -99.1954
rradius 90.8569
rwrist -27.0989
rhand 30.124 -1.84708
rfingers 7.12502
rthumb 53.8184 -20.8071
lclavicle -3.96948e-014 2.21645e-014
lhumerus -59.9432 -71.717 112.109
lradius 91.308
lwrist 18.8792
lhand 27.5232 27.5609
lfingers 7.12502
lthumb 51.467 47.9779
rfemur -33.2469 2.09376 27.4713
rtibia 40.6635
rfoot -24.6259 -38.6685
rtoes 2.48448
lfemur -38.5391 -6.36118 -6.5788
ltibia 41.3925
lfoot -48.5427 26.1104
ltoes 31.684
